{
    "asset" : {
        "generator" : "Khronos glTF Blender I/O v3.2.43",
        "version" : "2.0"
    },
    "scene" : 0,
    "scenes" : [
        {
            "name" : "Scene",
            "nodes" : [
                0,
                1,
                2,
                3,
                4,
                5,
                6,
                7,
                8,
                9,
                10,
                11,
                12
            ]
        }
    ],
    "nodes" : [
        {
            "mesh" : 0,
            "name" : "Franklin"
        },
        {
            "mesh" : 1,
            "name" : "138324041"
        },
        {
            "mesh" : 2,
            "name" : "Bernoulli"
        },
        {
            "mesh" : 3,
            "name" : "138324164"
        },
        {
            "mesh" : 4,
            "name" : "Amp\u00e8re"
        },
        {
            "mesh" : 5,
            "name" : "Passerelle"
        },
        {
            "mesh" : 6,
            "name" : "Edison"
        },
        {
            "mesh" : 7,
            "name" : "Carnot"
        },
        {
            "mesh" : 8,
            "name" : "Sas AB"
        },
        {
            "mesh" : 9,
            "name" : "Sas BC"
        },
        {
            "mesh" : 10,
            "name" : "Galil\u00e9e"
        },
        {
            "mesh" : 11,
            "name" : "Diesel"
        },
        {
            "mesh" : 12,
            "name" : "Sas CD"
        }
    ],
    "meshes" : [
        {
            "name" : "Franklin",
            "primitives" : [
                {
                    "attributes" : {
                        "POSITION" : 0,
                        "NORMAL" : 1
                    },
                    "indices" : 2
                }
            ]
        },
        {
            "name" : "138324041",
            "primitives" : [
                {
                    "attributes" : {
                        "POSITION" : 3,
                        "NORMAL" : 4
                    },
                    "indices" : 5
                }
            ]
        },
        {
            "name" : "Bernoulli",
            "primitives" : [
                {
                    "attributes" : {
                        "POSITION" : 6,
                        "NORMAL" : 7
                    },
                    "indices" : 8
                }
            ]
        },
        {
            "name" : "138324164",
            "primitives" : [
                {
                    "attributes" : {
                        "POSITION" : 9,
                        "NORMAL" : 10
                    },
                    "indices" : 11
                }
            ]
        },
        {
            "name" : "Amp\u00e8re",
            "primitives" : [
                {
                    "attributes" : {
                        "POSITION" : 12,
                        "NORMAL" : 13
                    },
                    "indices" : 14
                }
            ]
        },
        {
            "name" : "Passerelle",
            "primitives" : [
                {
                    "attributes" : {
                        "POSITION" : 15,
                        "NORMAL" : 16
                    },
                    "indices" : 17
                }
            ]
        },
        {
            "name" : "Edison",
            "primitives" : [
                {
                    "attributes" : {
                        "POSITION" : 18,
                        "NORMAL" : 19
                    },
                    "indices" : 20
                }
            ]
        },
        {
            "name" : "Carnot",
            "primitives" : [
                {
                    "attributes" : {
                        "POSITION" : 21,
                        "NORMAL" : 22
                    },
                    "indices" : 23
                }
            ]
        },
        {
            "name" : "Sas AB",
            "primitives" : [
                {
                    "attributes" : {
                        "POSITION" : 24,
                        "NORMAL" : 25
                    },
                    "indices" : 5
                }
            ]
        },
        {
            "name" : "Sas BC",
            "primitives" : [
                {
                    "attributes" : {
                        "POSITION" : 26,
                        "NORMAL" : 27
                    },
                    "indices" : 28
                }
            ]
        },
        {
            "name" : "Galil\u00e9e",
            "primitives" : [
                {
                    "attributes" : {
                        "POSITION" : 29,
                        "NORMAL" : 30
                    },
                    "indices" : 31
                }
            ]
        },
        {
            "name" : "Diesel",
            "primitives" : [
                {
                    "attributes" : {
                        "POSITION" : 32,
                        "NORMAL" : 33
                    },
                    "indices" : 34
                }
            ]
        },
        {
            "name" : "Sas CD",
            "primitives" : [
                {
                    "attributes" : {
                        "POSITION" : 35,
                        "NORMAL" : 36
                    },
                    "indices" : 37
                }
            ]
        }
    ],
    "accessors" : [
        {
            "bufferView" : 0,
            "componentType" : 5126,
            "count" : 14,
            "max" : [
                -18.40056037902832,
                38.008697509765625,
                89.30619049072266
            ],
            "min" : [
                -63.5517463684082,
                37.540069580078125,
                44.47533416748047
            ],
            "type" : "VEC3"
        },
        {
            "bufferView" : 1,
            "componentType" : 5126,
            "count" : 14,
            "type" : "VEC3"
        },
        {
            "bufferView" : 2,
            "componentType" : 5123,
            "count" : 36,
            "type" : "SCALAR"
        },
        {
            "bufferView" : 3,
            "componentType" : 5126,
            "count" : 4,
            "max" : [
                -20.092615127563477,
                37.939674377441406,
                91.97550201416016
            ],
            "min" : [
                -36.7794075012207,
                37.724609375,
                75.85696411132812
            ],
            "type" : "VEC3"
        },
        {
            "bufferView" : 4,
            "componentType" : 5126,
            "count" : 4,
            "type" : "VEC3"
        },
        {
            "bufferView" : 5,
            "componentType" : 5123,
            "count" : 6,
            "type" : "SCALAR"
        },
        {
            "bufferView" : 6,
            "componentType" : 5126,
            "count" : 38,
            "max" : [
                -91.22576904296875,
                38.516815185546875,
                55.83707046508789
            ],
            "min" : [
                -155.67974853515625,
                35.99578094482422,
                -14.79758358001709
            ],
            "type" : "VEC3"
        },
        {
            "bufferView" : 7,
            "componentType" : 5126,
            "count" : 38,
            "type" : "VEC3"
        },
        {
            "bufferView" : 8,
            "componentType" : 5123,
            "count" : 108,
            "type" : "SCALAR"
        },
        {
            "bufferView" : 9,
            "componentType" : 5126,
            "count" : 5,
            "max" : [
                -149.00057983398438,
                36.02687072753906,
                7.310032367706299
            ],
            "min" : [
                -163.2606201171875,
                35.43640899658203,
                -7.439779281616211
            ],
            "type" : "VEC3"
        },
        {
            "bufferView" : 10,
            "componentType" : 5126,
            "count" : 5,
            "type" : "VEC3"
        },
        {
            "bufferView" : 11,
            "componentType" : 5123,
            "count" : 9,
            "type" : "SCALAR"
        },
        {
            "bufferView" : 12,
            "componentType" : 5126,
            "count" : 72,
            "max" : [
                -41.91123580932617,
                38.78852844238281,
                45.39933395385742
            ],
            "min" : [
                -135.05226135253906,
                35.96721649169922,
                -58.05475997924805
            ],
            "type" : "VEC3"
        },
        {
            "bufferView" : 13,
            "componentType" : 5126,
            "count" : 72,
            "type" : "VEC3"
        },
        {
            "bufferView" : 14,
            "componentType" : 5123,
            "count" : 210,
            "type" : "SCALAR"
        },
        {
            "bufferView" : 15,
            "componentType" : 5126,
            "count" : 15,
            "max" : [
                -45.729496002197266,
                38.40626525878906,
                56.521514892578125
            ],
            "min" : [
                -67.13623046875,
                37.90252685546875,
                32.61736297607422
            ],
            "type" : "VEC3"
        },
        {
            "bufferView" : 16,
            "componentType" : 5126,
            "count" : 15,
            "type" : "VEC3"
        },
        {
            "bufferView" : 17,
            "componentType" : 5123,
            "count" : 39,
            "type" : "SCALAR"
        },
        {
            "bufferView" : 18,
            "componentType" : 5126,
            "count" : 28,
            "max" : [
                14.995287895202637,
                37.29676818847656,
                72.7769775390625
            ],
            "min" : [
                -23.120506286621094,
                36.48474884033203,
                32.1895866394043
            ],
            "type" : "VEC3"
        },
        {
            "bufferView" : 19,
            "componentType" : 5126,
            "count" : 28,
            "type" : "VEC3"
        },
        {
            "bufferView" : 20,
            "componentType" : 5123,
            "count" : 78,
            "type" : "SCALAR"
        },
        {
            "bufferView" : 21,
            "componentType" : 5126,
            "count" : 59,
            "max" : [
                -124.4769058227539,
                37.16888427734375,
                66.08657836914062
            ],
            "min" : [
                -195.93287658691406,
                34.892051696777344,
                -21.60783576965332
            ],
            "type" : "VEC3"
        },
        {
            "bufferView" : 22,
            "componentType" : 5126,
            "count" : 59,
            "type" : "VEC3"
        },
        {
            "bufferView" : 23,
            "componentType" : 5123,
            "count" : 171,
            "type" : "SCALAR"
        },
        {
            "bufferView" : 24,
            "componentType" : 5126,
            "count" : 4,
            "max" : [
                -97.3817367553711,
                38.78852844238281,
                22.915372848510742
            ],
            "min" : [
                -111.00724029541016,
                38.07861328125,
                8.969812393188477
            ],
            "type" : "VEC3"
        },
        {
            "bufferView" : 25,
            "componentType" : 5126,
            "count" : 4,
            "type" : "VEC3"
        },
        {
            "bufferView" : 26,
            "componentType" : 5126,
            "count" : 6,
            "max" : [
                -123.5752182006836,
                37.239532470703125,
                43.072227478027344
            ],
            "min" : [
                -137.54580688476562,
                36.41246795654297,
                28.49359130859375
            ],
            "type" : "VEC3"
        },
        {
            "bufferView" : 27,
            "componentType" : 5126,
            "count" : 6,
            "type" : "VEC3"
        },
        {
            "bufferView" : 28,
            "componentType" : 5123,
            "count" : 12,
            "type" : "SCALAR"
        },
        {
            "bufferView" : 29,
            "componentType" : 5126,
            "count" : 8,
            "max" : [
                -45.2619514465332,
                38.00000762939453,
                108.40200805664062
            ],
            "min" : [
                -90.00125885009766,
                37.64653778076172,
                70.24455261230469
            ],
            "type" : "VEC3"
        },
        {
            "bufferView" : 30,
            "componentType" : 5126,
            "count" : 8,
            "type" : "VEC3"
        },
        {
            "bufferView" : 31,
            "componentType" : 5123,
            "count" : 18,
            "type" : "SCALAR"
        },
        {
            "bufferView" : 32,
            "componentType" : 5126,
            "count" : 25,
            "max" : [
                -145.38270568847656,
                36.141571044921875,
                94.52503204345703
            ],
            "min" : [
                -183.9549102783203,
                34.325164794921875,
                53.52708053588867
            ],
            "type" : "VEC3"
        },
        {
            "bufferView" : 33,
            "componentType" : 5126,
            "count" : 25,
            "type" : "VEC3"
        },
        {
            "bufferView" : 34,
            "componentType" : 5123,
            "count" : 69,
            "type" : "SCALAR"
        },
        {
            "bufferView" : 35,
            "componentType" : 5126,
            "count" : 6,
            "max" : [
                -150.32528686523438,
                35.59291076660156,
                62.80126190185547
            ],
            "min" : [
                -164.89700317382812,
                34.892982482910156,
                47.67510223388672
            ],
            "type" : "VEC3"
        },
        {
            "bufferView" : 36,
            "componentType" : 5126,
            "count" : 6,
            "type" : "VEC3"
        },
        {
            "bufferView" : 37,
            "componentType" : 5123,
            "count" : 12,
            "type" : "SCALAR"
        }
    ],
    "bufferViews" : [
        {
            "buffer" : 0,
            "byteLength" : 168,
            "byteOffset" : 0
        },
        {
            "buffer" : 0,
            "byteLength" : 168,
            "byteOffset" : 168
        },
        {
            "buffer" : 0,
            "byteLength" : 72,
            "byteOffset" : 336
        },
        {
            "buffer" : 0,
            "byteLength" : 48,
            "byteOffset" : 408
        },
        {
            "buffer" : 0,
            "byteLength" : 48,
            "byteOffset" : 456
        },
        {
            "buffer" : 0,
            "byteLength" : 12,
            "byteOffset" : 504
        },
        {
            "buffer" : 0,
            "byteLength" : 456,
            "byteOffset" : 516
        },
        {
            "buffer" : 0,
            "byteLength" : 456,
            "byteOffset" : 972
        },
        {
            "buffer" : 0,
            "byteLength" : 216,
            "byteOffset" : 1428
        },
        {
            "buffer" : 0,
            "byteLength" : 60,
            "byteOffset" : 1644
        },
        {
            "buffer" : 0,
            "byteLength" : 60,
            "byteOffset" : 1704
        },
        {
            "buffer" : 0,
            "byteLength" : 18,
            "byteOffset" : 1764
        },
        {
            "buffer" : 0,
            "byteLength" : 864,
            "byteOffset" : 1784
        },
        {
            "buffer" : 0,
            "byteLength" : 864,
            "byteOffset" : 2648
        },
        {
            "buffer" : 0,
            "byteLength" : 420,
            "byteOffset" : 3512
        },
        {
            "buffer" : 0,
            "byteLength" : 180,
            "byteOffset" : 3932
        },
        {
            "buffer" : 0,
            "byteLength" : 180,
            "byteOffset" : 4112
        },
        {
            "buffer" : 0,
            "byteLength" : 78,
            "byteOffset" : 4292
        },
        {
            "buffer" : 0,
            "byteLength" : 336,
            "byteOffset" : 4372
        },
        {
            "buffer" : 0,
            "byteLength" : 336,
            "byteOffset" : 4708
        },
        {
            "buffer" : 0,
            "byteLength" : 156,
            "byteOffset" : 5044
        },
        {
            "buffer" : 0,
            "byteLength" : 708,
            "byteOffset" : 5200
        },
        {
            "buffer" : 0,
            "byteLength" : 708,
            "byteOffset" : 5908
        },
        {
            "buffer" : 0,
            "byteLength" : 342,
            "byteOffset" : 6616
        },
        {
            "buffer" : 0,
            "byteLength" : 48,
            "byteOffset" : 6960
        },
        {
            "buffer" : 0,
            "byteLength" : 48,
            "byteOffset" : 7008
        },
        {
            "buffer" : 0,
            "byteLength" : 72,
            "byteOffset" : 7056
        },
        {
            "buffer" : 0,
            "byteLength" : 72,
            "byteOffset" : 7128
        },
        {
            "buffer" : 0,
            "byteLength" : 24,
            "byteOffset" : 7200
        },
        {
            "buffer" : 0,
            "byteLength" : 96,
            "byteOffset" : 7224
        },
        {
            "buffer" : 0,
            "byteLength" : 96,
            "byteOffset" : 7320
        },
        {
            "buffer" : 0,
            "byteLength" : 36,
            "byteOffset" : 7416
        },
        {
            "buffer" : 0,
            "byteLength" : 300,
            "byteOffset" : 7452
        },
        {
            "buffer" : 0,
            "byteLength" : 300,
            "byteOffset" : 7752
        },
        {
            "buffer" : 0,
            "byteLength" : 138,
            "byteOffset" : 8052
        },
        {
            "buffer" : 0,
            "byteLength" : 72,
            "byteOffset" : 8192
        },
        {
            "buffer" : 0,
            "byteLength" : 72,
            "byteOffset" : 8264
        },
        {
            "buffer" : 0,
            "byteLength" : 24,
            "byteOffset" : 8336
        }
    ],
    "buffers" : [
        {
            "byteLength" : 8360,
            "uri" : "data:application/octet-stream;base64,"
        }
    ]
}
