# Blender v3.2.1 OBJ File: 'supply_box.blend'
# www.blender.org
mtllib supply_box.mtl
o Cube_Cube.001
v -1.000000 0.000000 1.000000
v -1.000000 1.800000 1.000000
v -1.000000 0.000000 -1.000000
v -1.000000 1.800000 -1.000000
v 1.000000 0.000000 1.000000
v 1.000000 1.800000 1.000000
v 1.000000 0.000000 -1.000000
v 1.000000 1.800000 -1.000000
v -1.000000 1.350000 1.000000
v -1.000000 0.450000 -1.000000
v 1.000000 0.450000 -1.000000
v 1.000000 0.450000 1.000000
v -1.000000 0.450000 1.000000
v -1.000000 1.350000 -1.000000
v 1.000000 1.350000 -1.000000
v 1.000000 1.350000 1.000000
v -1.000000 1.575000 1.000000
v -1.000000 0.225000 -1.000000
v 1.000000 0.225000 -1.000000
v 1.000000 0.225000 1.000000
v -1.000000 0.675000 1.000000
v -1.000000 1.125000 -1.000000
v 1.000000 1.125000 -1.000000
v 1.000000 1.125000 1.000000
v -1.000000 1.125000 1.000000
v -1.000000 0.675000 -1.000000
v 1.000000 0.675000 -1.000000
v 1.000000 0.675000 1.000000
v -1.000000 0.225000 1.000000
v -1.000000 1.575000 -1.000000
v 1.000000 1.575000 -1.000000
v 1.000000 1.575000 1.000000
v -1.050000 0.455625 -1.050000
v 1.050000 0.455625 -1.050000
v 1.050000 0.455625 1.050000
v -1.050000 0.455625 1.050000
v -1.050000 0.219375 -1.050000
v 1.050000 0.219375 -1.050000
v 1.050000 0.219375 1.050000
v -1.050000 0.219375 1.050000
v -1.050000 1.344375 1.050000
v -1.050000 1.344375 -1.050000
v 1.050000 1.344375 -1.050000
v 1.050000 1.344375 1.050000
v -1.050000 1.580625 1.050000
v -1.050000 1.580625 -1.050000
v 1.050000 1.580625 -1.050000
v 1.050000 1.580625 1.050000
v -1.050000 0.663750 1.050000
v -1.050000 1.136250 -1.050000
v 1.050000 1.136250 -1.050000
v 1.050000 1.136250 1.050000
v -1.050000 1.136250 1.050000
v -1.050000 0.663750 -1.050000
v 1.050000 0.663750 -1.050000
v 1.050000 0.663750 1.050000
vt 0.000000 0.000000
vt 0.000000 0.000000
vt 0.000000 0.000000
vt 0.000000 0.000000
vt 0.000000 0.000000
vt 0.000000 0.000000
vt 0.000000 0.000000
vt 0.000000 0.000000
vt 0.000000 0.000000
vt 0.000000 0.000000
vt 0.000000 0.000000
vt 0.000000 0.000000
vt 0.000000 0.000000
vt 0.000000 0.000000
vt 0.000000 0.000000
vt 0.000000 0.000000
vt 0.000000 0.000000
vt 0.000000 0.000000
vt 0.000000 0.000000
vt 0.000000 0.000000
vt 0.000000 0.000000
vt 0.000000 0.000000
vt 0.000000 0.000000
vt 0.000000 0.000000
vt 0.000000 0.000000
vt 0.000000 0.000000
vt 0.000000 0.000000
vt 0.000000 0.000000
vt 0.000000 0.000000
vt 0.000000 0.000000
vt 0.000000 0.000000
vt 0.000000 0.000000
vt 0.000000 0.000000
vt 0.000000 0.000000
vt 0.000000 0.000000
vt 0.000000 0.000000
vt 0.000000 0.000000
vt 0.000000 0.000000
vt 0.000000 0.000000
vt 0.000000 0.000000
vt 0.000000 0.000000
vt 0.000000 0.000000
vt 0.000000 0.000000
vt 0.000000 0.000000
vt 0.000000 0.000000
vt 0.000000 0.000000
vt 0.000000 0.000000
vt 0.000000 0.000000
vt 0.000000 0.000000
vt 0.000000 0.000000
vt 0.000000 0.000000
vt 0.000000 0.000000
vt 0.000000 0.000000
vt 0.000000 0.000000
vt 0.000000 0.000000
vt 0.000000 0.000000
vn 0.0000 0.0000 -1.0000
vn 1.0000 0.0000 0.0000
vn -1.0000 0.0000 0.0000
vn 0.0000 0.0000 1.0000
vn 0.1118 -0.9937 0.0000
vn 0.1118 0.9937 0.0000
vn 0.2195 -0.9756 0.0000
vn 0.2195 0.9756 0.0000
vn 0.0000 -0.9937 0.1118
vn 0.0000 0.9937 0.1118
vn 0.0000 -0.9756 0.2195
vn 0.0000 0.9756 0.2195
vn 0.0000 -1.0000 0.0000
vn 0.0000 -0.9937 -0.1118
vn 0.0000 0.9937 -0.1118
vn 0.0000 -0.9756 -0.2195
vn 0.0000 0.9756 -0.2195
vn -0.1118 0.9937 0.0000
vn -0.1118 -0.9937 0.0000
vn -0.2195 0.9756 0.0000
vn -0.2195 -0.9756 0.0000
usemtl None
s off
f 2/1/1 6/2/1 32/3/1 17/4/1
f 4/5/2 2/1/2 17/4/2 30/6/2
f 53/7/2 49/8/2 54/9/2 50/10/2
f 52/11/3 51/12/3 55/13/3 56/14/3
f 31/15/4 8/16/4 4/5/4 30/6/4
f 31/15/3 32/3/3 6/2/3 8/16/3
f 43/17/3 44/18/3 48/19/3 47/20/3
f 47/20/5 48/19/5 32/3/5 31/15/5
f 15/21/6 16/22/6 44/18/6 43/17/6
f 51/12/7 52/11/7 24/23/7 23/24/7
f 23/24/3 24/23/3 16/22/3 15/21/3
f 27/25/8 28/26/8 56/14/8 55/13/8
f 11/27/3 12/28/3 28/26/3 27/25/3
f 34/29/5 35/30/5 12/28/5 11/27/5
f 38/31/3 39/32/3 35/30/3 34/29/3
f 19/33/6 20/34/6 39/32/6 38/31/6
f 7/35/3 5/36/3 20/34/3 19/33/3
f 32/3/9 48/19/9 45/37/9 17/4/9
f 9/38/10 41/39/10 44/18/10 16/22/10
f 53/7/11 25/40/11 24/23/11 52/11/11
f 21/41/12 49/8/12 56/14/12 28/26/12
f 12/28/9 35/30/9 36/42/9 13/43/9
f 29/44/10 40/45/10 39/32/10 20/34/10
f 1/46/1 29/44/1 20/34/1 5/36/1
f 40/45/1 36/42/1 35/30/1 39/32/1
f 28/26/1 12/28/1 13/43/1 21/41/1
f 56/14/1 49/8/1 53/7/1 52/11/1
f 25/40/1 9/38/1 16/22/1 24/23/1
f 48/19/1 44/18/1 41/39/1 45/37/1
f 2/1/13 4/5/13 8/16/13 6/2/13
f 31/15/14 30/6/14 46/47/14 47/20/14
f 15/21/15 43/17/15 42/48/15 14/49/15
f 51/12/16 23/24/16 22/50/16 50/10/16
f 27/25/17 55/13/17 54/9/17 26/51/17
f 34/29/14 11/27/14 10/52/14 33/53/14
f 38/31/15 37/54/15 18/55/15 19/33/15
f 42/48/4 43/17/4 47/20/4 46/47/4
f 22/50/4 23/24/4 15/21/4 14/49/4
f 18/55/4 3/56/4 7/35/4 19/33/4
f 37/54/4 38/31/4 34/29/4 33/53/4
f 10/52/4 11/27/4 27/25/4 26/51/4
f 51/12/4 50/10/4 54/9/4 55/13/4
f 18/55/2 29/44/2 1/46/2 3/56/2
f 40/45/18 29/44/18 18/55/18 37/54/18
f 10/52/19 13/43/19 36/42/19 33/53/19
f 40/45/2 37/54/2 33/53/2 36/42/2
f 21/41/20 26/51/20 54/9/20 49/8/20
f 26/51/2 21/41/2 13/43/2 10/52/2
f 53/7/21 50/10/21 22/50/21 25/40/21
f 25/40/2 22/50/2 14/49/2 9/38/2
f 9/38/18 14/49/18 42/48/18 41/39/18
f 30/6/19 17/4/19 45/37/19 46/47/19
f 46/47/2 45/37/2 41/39/2 42/48/2
